<svg width="65" height="65" viewBox="0 0 65 65" fill="none" xmlns="http://www.w3.org/2000/svg">
<path fill-rule="evenodd" clip-rule="evenodd" d="M10.761 10.761C8.125 13.3971 8.125 17.6397 8.125 26.125V38.875C8.125 47.3603 8.125 51.6029 10.761 54.239C13.3971 56.875 17.6397 56.875 26.125 56.875H50.875C53.7034 56.875 55.1176 56.875 55.9963 55.9963C56.875 55.1176 56.875 53.7034 56.875 50.875V26.125C56.875 17.6397 56.875 13.3971 54.239 10.761C51.6029 8.125 47.3603 8.125 38.875 8.125H26.125C17.6397 8.125 13.3971 8.125 10.761 10.761ZM23.375 29.7917C23.375 29.2394 23.8227 28.7917 24.375 28.7917H40.625C41.1773 28.7917 41.625 29.2394 41.625 29.7917C41.625 30.344 41.1773 30.7917 40.625 30.7917H24.375C23.8227 30.7917 23.375 30.344 23.375 29.7917ZM31.5 40.625C31.5 40.0727 31.9477 39.625 32.5 39.625H40.625C41.1773 39.625 41.625 40.0727 41.625 40.625C41.625 41.1773 41.1773 41.625 40.625 41.625H32.5C31.9477 41.625 31.5 41.1773 31.5 40.625Z" fill="#56FF52" fill-opacity="0.85"/>
</svg>
