<svg width="65" height="65" viewBox="0 0 65 65" fill="none" xmlns="http://www.w3.org/2000/svg">
<path fill-rule="evenodd" clip-rule="evenodd" d="M8.125 16.125C8.125 12.3538 8.125 10.4681 9.29657 9.29657C10.4681 8.125 12.3538 8.125 16.125 8.125H48.875C52.6462 8.125 54.5319 8.125 55.7034 9.29657C56.875 10.4681 56.875 12.3538 56.875 16.125V48.875C56.875 52.6462 56.875 54.5319 55.7034 55.7034C54.5319 56.875 52.6462 56.875 48.875 56.875H16.125C12.3538 56.875 10.4681 56.875 9.29657 55.7034C8.125 54.5319 8.125 52.6462 8.125 48.875V16.125ZM48.75 20.3125C48.75 22.5562 46.9312 24.375 44.6875 24.375C42.4438 24.375 40.625 22.5562 40.625 20.3125C40.625 18.0688 42.4438 16.25 44.6875 16.25C46.9312 16.25 48.75 18.0688 48.75 20.3125ZM41.3333 35.2083C41.3333 40.0868 37.3785 44.0417 32.5 44.0417C27.6215 44.0417 23.6667 40.0868 23.6667 35.2083C23.6667 30.3298 27.6215 26.375 32.5 26.375C37.3785 26.375 41.3333 30.3298 41.3333 35.2083ZM43.3333 35.2083C43.3333 41.1914 38.4831 46.0417 32.5 46.0417C26.5169 46.0417 21.6667 41.1914 21.6667 35.2083C21.6667 29.2252 26.5169 24.375 32.5 24.375C38.4831 24.375 43.3333 29.2252 43.3333 35.2083Z" fill="url(#paint0_linear_26_49)"/>
<defs>
<linearGradient id="paint0_linear_26_49" x1="32.5" y1="8.125" x2="32.5" y2="56.875" gradientUnits="userSpaceOnUse">
<stop stop-color="#FF0078"/>
<stop offset="1" stop-color="#FF8A00"/>
</linearGradient>
</defs>
</svg>
