<svg width="65" height="65" viewBox="0 0 65 65" fill="none" xmlns="http://www.w3.org/2000/svg">
<path fill-rule="evenodd" clip-rule="evenodd" d="M28.7309 34.8548L11.1087 28.9807C8.75547 28.1963 7.57886 27.8041 7.57886 27.0833C7.57886 26.3626 8.75546 25.9704 11.1087 25.186L50.3718 12.0983C52.0276 11.5463 52.8555 11.2704 53.2925 11.7074C53.7296 12.1444 53.4536 12.9723 52.9017 14.6281L39.8139 53.8912C39.0295 56.2445 38.6373 57.4211 37.9166 57.4211C37.1958 57.4211 36.8036 56.2445 36.0192 53.8912L30.1451 36.269L41.332 25.0821C41.7225 24.6916 41.7225 24.0584 41.332 23.6679C40.9415 23.2774 40.3083 23.2774 39.9178 23.6679L28.7309 34.8548Z" fill="#00D5FF"/>
</svg>
